<?xml version="1.0" encoding="utf-8"?>
<!-- Generator: Adobe Illustrator 24.0.2, SVG Export Plug-In . SVG Version: 6.00 Build 0)  -->
<svg version="1.1" id="Layer_1" xmlns="http://www.w3.org/2000/svg" xmlns:xlink="http://www.w3.org/1999/xlink" x="0px" y="0px"
	 viewBox="0 0 130.35 44.39" style="enable-background:new 0 0 130.35 44.39;" xml:space="preserve">
<style type="text/css">
	.st0{fill:#004EA1;}
	.st1{fill:#FFFFFF;}
</style>
<g>
	<rect x="69.07" y="16.21" class="st0" width="2.66" height="20.92"/>
	<path class="st0" d="M60.6,26.02c-0.62-1.4-0.92-3.05-0.92-4.95v-4.35h-2.79v4.31c0,1.94-0.32,3.61-0.96,4.97
		c-0.64,1.37-1.54,2.33-2.71,2.9v2.03c0.47-0.08,0.98-0.27,1.53-0.56c0.55-0.29,1.06-0.64,1.53-1.04c0.5-0.41,0.92-0.85,1.27-1.32
		c0.36-0.47,0.58-0.94,0.68-1.39c0.07,0.46,0.29,0.93,0.64,1.41c0.35,0.47,0.78,0.91,1.27,1.31c0.49,0.4,1.02,0.75,1.59,1.04
		c0.56,0.29,1.11,0.48,1.63,0.56V28.9C62.13,28.38,61.21,27.42,60.6,26.02z"/>
	<polygon class="st0" points="64.74,22.68 61.31,22.68 61.31,24.52 64.74,24.52 64.74,37.12 67.4,37.12 67.4,16.21 64.74,16.21 	"/>
	<path class="st0" d="M83.16,28.61c-3.64,0-6.58,2.17-6.58,4.86c0,2.69,2.95,4.86,6.58,4.86c3.62,0,6.56-2.18,6.56-4.86
		C89.72,30.78,86.79,28.61,83.16,28.61z M83.16,36.49c-2.07,0-3.74-1.36-3.74-3.02c0-1.67,1.67-3.03,3.74-3.03
		c2.06,0,3.73,1.36,3.73,3.03C86.89,35.13,85.22,36.49,83.16,36.49z"/>
	<path class="st0" d="M75.8,16.47v1.84h5.96c-0.16,0.86-1.53,3.91-6.36,3.91v1.91c4.34,0,7.11-1.78,7.75-3.13
		c0.64,1.35,3.42,3.13,7.76,3.13v-1.91c-4.84,0-6.2-3.05-6.36-3.91h5.96v-1.84H75.8z"/>
	<polygon class="st0" points="127.69,16.21 127.69,28.55 123,28.55 123,30.39 127.69,30.39 127.69,32.64 130.35,32.64 130.35,16.21 
			"/>
	<path class="st0" d="M118.98,34.98c-0.22-0.2-0.33-0.44-0.33-0.72v-3.28h-2.66v3.52c0,0.72,0.21,1.34,0.64,1.85
		c0.44,0.52,0.97,0.77,1.64,0.77h12.08v-1.84h-10.58C119.46,35.29,119.2,35.18,118.98,34.98z"/>
	<path class="st0" d="M119.81,25.06c3.01,0,5.45-2.01,5.45-4.49c0-2.48-2.44-4.49-5.45-4.49c-3.02,0-5.46,2.01-5.46,4.49
		C114.35,23.05,116.8,25.06,119.81,25.06z M119.81,17.93c1.48,0,2.69,1.19,2.69,2.64c0,1.46-1.2,2.64-2.69,2.64
		c-1.49,0-2.69-1.18-2.69-2.64C117.12,19.12,118.32,17.93,119.81,17.93z"/>
	<polygon class="st0" points="118.48,30.39 121.14,30.39 121.14,27.5 126.72,27.5 126.72,25.66 112.91,25.66 112.91,27.5 
		118.48,27.5 	"/>
	<polygon class="st0" points="84.48,23.4 81.83,23.4 81.83,25.74 73.05,25.74 73.05,27.57 93.26,27.57 93.26,25.74 84.48,25.74 	"/>
	<path class="st0" d="M108.54,18.69h-4.19v-1.97h-2.65v3.01h-4.97v-3.01h-2.66v7.29c0,0.76,0.25,1.4,0.73,1.92
		c0.49,0.51,1.07,0.77,1.73,0.77h7.83v-1.9h4.19v2.99h2.66V16.21h-2.66V18.69z M101.7,24.87h-3.81c-0.3,0-0.58-0.1-0.81-0.29
		c-0.24-0.19-0.35-0.45-0.35-0.77v-2.22h4.97V24.87z M108.54,22.96h-4.19v-2.42h4.19V22.96z"/>
	<path class="st0" d="M104.95,28.15c-3.41,0-6.19,2.28-6.19,5.09c0,2.81,2.77,5.09,6.19,5.09c3.41,0,6.18-2.28,6.18-5.09
		C111.14,30.43,108.37,28.15,104.95,28.15z M104.95,36.49c-1.85,0-3.35-1.46-3.35-3.24c0-1.79,1.5-3.25,3.35-3.25
		c1.85,0,3.34,1.46,3.34,3.25C108.29,35.03,106.8,36.49,104.95,36.49z"/>
	<g>
		<g>
			<path class="st1" d="M33.22,0H0v32.98h0.01c0,7.06,3.03,11.4,10.68,11.4h33.69V10.68C44.39,3.11,40.14,0.07,33.22,0z"/>
		</g>
		<g>
			<path class="st0" d="M19.01,30.86c-0.32-0.36-0.81-0.52-1.38-0.59c-0.64-0.08-1.9,0-1.9,0c-0.79,0.03-1.19,0.36-1.41,0.62h0
				c-0.41,0.48-0.44,1.95-0.44,2.53c0,0.58,0.03,2.05,0.45,2.52c0.23,0.26,0.62,0.54,1.41,0.57c0,0,1.26,0.08,1.9,0
				c0.58-0.07,1.06-0.18,1.38-0.54l0.03-0.04c0.41-0.48,0.44-1.94,0.44-2.52c0-0.58-0.03-2.06-0.44-2.53L19.01,30.86z"/>
			<path class="st0" d="M33.22,0H10.83v5.29h5.54v5.54h-5.54v5.54H5.29v-5.54H0v22.15h0.01c0,7.06,3.03,11.4,10.68,11.4h33.69V10.68
				C44.39,3.11,40.14,0.07,33.22,0z M11.12,35.85c0,1.52-0.88,2.42-2.35,2.42H5V36.5h3.54c0.7,0,0.7-0.57,0.7-0.86v-7.08h1.88V35.85
				z M20.49,37.19L20.49,37.19c-0.63,0.74-1.6,1.14-2.8,1.18c-1.39,0.05-2.03,0-2.03,0c-1.23-0.04-2.17-0.44-2.8-1.18
				c-0.64-0.74-0.87-2.47-0.87-3.77c0-1.31,0.23-3.04,0.87-3.78c0.63-0.73,1.57-1.13,2.8-1.18c0,0,0.64-0.05,2.03,0
				c1.2,0.04,2.17,0.44,2.8,1.18c0.64,0.74,0.87,2.48,0.87,3.78C21.37,34.72,21.13,36.45,20.49,37.19z M30.24,38.28h-0.31h-1.57
				h-0.07l-4.18-6.66v6.66h-1.88v-9.72h0.31h1.56h0.12l4.14,6.57v-6.57h1.88V38.28z M29.43,25.9c-0.34,0.2-0.77,0.31-1.28,0.31
				h-5.98v-1.77h5.55c0.73,0,0.97-0.77,0.97-1.12c0-0.34-0.23-1.11-0.97-1.11h-3.38c-0.69,0-1.27-0.23-1.71-0.68
				c-0.44-0.44-0.82-1.41-0.82-2.17c0-1.02,0.52-2.09,1.25-2.55c0.35-0.21,0.78-0.32,1.27-0.32h5.87v1.79h-5.44
				c-0.73,0-0.97,0.76-0.97,1.11c0,0.5,0.39,1.12,0.97,1.12h3.38c0.7,0,1.28,0.23,1.71,0.67c0.44,0.45,0.82,1.42,0.82,2.18
				C30.69,24.38,30.16,25.47,29.43,25.9z M35.16,16.49h4.28v1.78h-4.1c-1.19,0-1.98,0.82-2.21,2.21h6.31v1.69h-6.31
				c0.22,1.42,1.01,2.25,2.21,2.25h4.1v1.77h-4.27c-2.46,0-4.04-1.92-4.04-4.86S32.7,16.49,35.16,16.49z M39.54,34.26v2.24v0.89
				v0.88h-4.38c-2.46,0-4.04-1.92-4.04-4.86c0-2.94,1.59-4.86,4.04-4.86h4.27v1.78h-4.1c-1.42,0-2.27,1.16-2.27,3.08
				c0,1.92,0.85,3.08,2.27,3.08h2.32v-2.24h-2.15v-1.7h2.15h1.88V34.26z"/>
			<rect class="st0" width="5.29" height="5.29"/>
		</g>
	</g>
</g>
</svg>
